<svg height="512" viewBox="0 0 56 56" width="512" xmlns="http://www.w3.org/2000/svg"><g id="Page-1" fill="none" fill-rule="evenodd"><g id="029---Ice-Cubes" fill="rgb(0,0,0)" fill-rule="nonzero"><path id="Shape" d="m24 19h-20c-2.209139 0-4 1.790861-4 4v20c0 2.209139 1.790861 4 4 4h20c2.209139 0 4-1.790861 4-4v-20c0-2.209139-1.790861-4-4-4zm-21.707 7.293 5-5c.39237889-.3789722 1.01608478-.3735524 1.40181858.0121814.38573379.3857338.39115363 1.0094397.01218142 1.4018186l-5 5c-.39237889.3789722-1.01608478.3735524-1.40181858-.0121814-.38573379-.3857338-.39115363-1.0094397-.01218142-1.4018186zm12.414-3.586-11 11c-.39237889.3789722-1.01608478.3735524-1.40181858-.0121814-.38573379-.3857338-.39115363-1.0094397-.01218142-1.4018186l11-11c.3923789-.3789722 1.0160848-.3735524 1.4018186.0121814s.3911536 1.0094397.0121814 1.4018186zm11.293 20.293c0 1.1045695-.8954305 2-2 2h-3c-.5522847 0-1-.4477153-1-1s.4477153-1 1-1h3v-3c0-.5522847.4477153-1 1-1s1 .4477153 1 1z"/><path id="Shape" d="m30 31.451c3.0256849-3.4639206 7.4007049-5.4512735 12-5.451.6961527.0047708 1.3912689.0545413 2.081.149 1.4897515-.0024762 2.8744211-.7678373 3.669-2.028.6990116-1.1498383.7690009-2.5752118.186-3.788l-8.608-18.052c-.956018-1.99228663-3.3430804-2.83640985-5.339-1.888l-18.049 8.607c-1.992533.9547763-2.8365765 3.3419837-1.887 5.337l1.268 2.663h8.679c3.3123376.0033074 5.9966926 2.6876624 6 6zm1.439-27.626 3.41-1.625c.9997919-.45149647 2.1778331-.03589866 2.673.943l1.588 3.327c.2358286.4974038.0253067 1.09187119-.471 1.33-.133956.06533987-.2809588.09952657-.43.1-.3844318-.00090467-.7343105-.22210574-.9-.569l-1.591-3.331-3.418 1.63c-.4891281.19619414-1.0465684-.02088807-1.2741922-.49620462-.2276238-.47531656-.0472958-1.0457078.4121922-1.30379538z"/><path id="Shape" d="m46.751 28.831c-6.3093827-2.2825617-13.3495492.2555295-16.751 6.039v8.13c.000077 1.2945508-.4211321 2.5539659-1.2 3.588 2.1397255 6.1529416 8.2433747 10.01451 14.719842 9.3127365 6.4764673-.7017734 11.6113023-5.7811153 12.383405-12.2495751s-3.022918-12.6137069-9.152247-14.8201614zm.761 15.2 3.229-.865c.3486122-.1036823.7260305-.0099144.9855847.2448642.2595541.2547786.3603139.6303908.2631225.9808681-.0971913.3504773-.3770073.6205514-.7307072.7052677l-2.664.714.714 2.665c.0683527.2563339.0320475.5293236-.1009245.7588832s-.3517123.396874-.6080755.4651168c-.0846917.0233384-.1721515.0351119-.26.035-.4524951-.0005181-.8482565-.3048238-.965-.742l-.865-3.23-3.51-2.031v4.055l2.364 2.364c.2599566.2510745.3642126.6228779.2726972.9725073-.0915155.3496295-.3645604.6226744-.7141899.7141899-.3496294.0915154-.7214328-.0127406-.9725073-.2726972l-1.95-1.95-1.95 1.95c-.3923789.3789722-1.0160848.3735524-1.4018186-.0121814s-.3911536-1.0094397-.0121814-1.4018186l2.364-2.364v-4.055l-3.512 2.027-.865 3.23c-.1167435.4371762-.5125049.7414819-.965.742-.0878485.0001119-.1753083-.0116616-.26-.035-.5330514-.1429996-.8494732-.6908077-.707-1.224l.714-2.665-2.664-.714c-.3536999-.0847163-.6335159-.3547904-.7307072-.7052677-.0971914-.3504773.0035684-.7260895.2631225-.9808681.2595542-.2547786.6369725-.3485465.9855847-.2448642l3.229.865 3.512-2.027-3.512-2.027-3.229.865c-.0846917.0233384-.1721515.0351119-.26.035-.5017827-.0002717-.9256677-.3723675-.9909573-.8698845-.0652897-.4975171.2482351-.9663838.7329573-1.0961155l2.664-.714-.714-2.665c-.1398151-.5324122.1769484-1.0777088.7087028-1.2200053.5317543-.1422966 1.0785222.1719204 1.2232972.7030053l.865 3.23 3.512 2.027v-4.055l-2.364-2.364c-.3789722-.3923789-.3735524-1.0160848.0121814-1.4018186s1.0094397-.3911536 1.4018186-.0121814l1.95 1.95 1.95-1.95c.3923789-.3789722 1.0160848-.3735524 1.4018186.0121814s.3911536 1.0094397.0121814 1.4018186l-2.364 2.364v4.055l3.512-2.027.865-3.23c.144775-.5310849.6915429-.8453019 1.2232972-.7030053.5317544.1422965.8485179.6875931.7087028 1.2200053l-.709 2.665 2.664.714c.485854.1300043.7995552.6006311.7326189 1.0991035-.0669362.4984724-.49368.8696701-.9966189.8668965-.0878485.0001119-.1753083-.0116616-.26-.035l-3.229-.865-3.511 2.027z"/></g></g></svg>