<svg id="Layer_1" enable-background="new 0 0 512 512" height="512" viewBox="0 0 512 512" width="512" xmlns="http://www.w3.org/2000/svg"><g><path d="m100.223 0v512h311.555v-512zm281.554 30v43.26h-251.554v-43.26zm-104.147 430.37c0 11.927-9.703 21.63-21.63 21.63s-21.63-9.703-21.63-21.63 9.703-21.63 21.63-21.63 21.63 9.703 21.63 21.63zm-147.407-51.63v-305.48h251.555v305.48zm0 30h78.914c-3.051 6.584-4.767 13.909-4.767 21.63s1.715 15.046 4.767 21.63h-78.914zm172.64 43.26c3.051-6.584 4.767-13.909 4.767-21.63s-1.715-15.046-4.767-21.63h78.914v43.26z"/><path d="m309.159 193.749c-13.943-17.893-32.822-27.746-53.159-27.746s-39.216 9.854-53.159 27.746c-13.082 16.786-20.287 38.895-20.287 62.251s7.205 45.465 20.287 62.252c13.943 17.893 32.822 27.746 53.159 27.746s39.216-9.854 53.159-27.746c13.082-16.787 20.287-38.896 20.287-62.252s-7.205-45.465-20.287-62.251zm-82.655 106.063c-8.996-11.544-13.95-27.103-13.95-43.812s4.954-32.268 13.95-43.811c2.264-2.906 4.715-5.433 7.3-7.589-.39 3.908-.614 8.192-.614 12.989 0 22.138 4.736 33.784 8.916 44.06 3.598 8.847 6.705 16.486 6.705 32.758 0 8.785-.915 15.043-2.226 20.122-7.409-2.318-14.331-7.339-20.081-14.717zm58.992 0c-2.264 2.905-4.715 5.432-7.3 7.588.39-3.909.615-8.194.615-12.993 0-22.139-4.736-33.785-8.916-44.061-3.598-8.847-6.705-16.486-6.705-32.757 0-8.782.914-15.04 2.226-20.119 7.408 2.318 14.331 7.339 20.081 14.718 8.996 11.543 13.95 27.102 13.95 43.811s-4.955 32.269-13.951 43.813z"/></g></svg>